<?xml version="1.0" standalone="no"?>
<!DOCTYPE svg PUBLIC "-//W3C//DTD SVG 20010904//EN"
 "http://www.w3.org/TR/2001/REC-SVG-20010904/DTD/svg10.dtd">
<svg version="1.0" xmlns="http://www.w3.org/2000/svg"
 width="600.000000pt" height="600.000000pt" viewBox="0 0 600.000000 600.000000"
 preserveAspectRatio="xMidYMid meet">

<g transform="translate(0.000000,600.000000) scale(0.100000,-0.100000)"
fill="#000000" stroke="none">
<path d="M1893 5878 c-17 -6 -44 -24 -60 -40 -25 -26 -28 -37 -30 -106 -7
-186 -25 -447 -39 -567 -18 -161 -52 -385 -62 -406 -6 -14 -71 -3 -537 87
-291 57 -545 104 -563 104 -45 0 -88 -24 -107 -60 -18 -34 -19 -124 -5 -255
42 -370 176 -672 419 -937 34 -36 61 -68 61 -71 0 -2 -28 -10 -62 -17 -158
-31 -446 -143 -613 -240 -107 -61 -251 -173 -276 -214 -24 -39 -24 -82 0 -122
39 -64 345 -241 661 -382 53 -23 122 -63 154 -88 57 -45 57 -46 39 -66 -36
-40 -271 -233 -439 -359 -95 -72 -176 -140 -182 -154 -27 -59 2 -136 61 -159
17 -7 195 -57 395 -112 l363 -99 -6 -60 c-19 -174 -81 -382 -175 -585 -60
-129 -62 -163 -10 -215 l31 -30 132 1 c148 2 325 28 511 74 65 17 122 30 126
30 4 0 26 -31 48 -68 102 -171 269 -355 436 -479 108 -81 294 -177 419 -217
252 -82 541 -85 805 -10 118 33 348 149 452 228 160 120 333 312 432 478 22
37 41 68 42 68 2 0 35 -11 75 -25 101 -34 236 -62 369 -76 151 -15 205 -10
242 26 43 41 46 79 16 182 -46 160 -86 436 -86 602 l0 77 73 18 c142 36 427
135 529 184 166 80 241 166 224 254 -9 45 -19 57 -108 119 -124 88 -235 187
-334 298 l-93 105 97 53 c189 103 359 251 488 423 76 101 194 327 194 372 0
41 -33 93 -68 106 -15 6 -106 13 -202 17 -268 9 -548 39 -722 76 l-47 10 40
117 c116 335 272 663 424 892 100 151 108 175 80 230 -33 63 -134 85 -390 84
-265 0 -472 -44 -716 -153 l-107 -48 -21 131 c-39 248 -59 474 -74 833 -2 63
-6 76 -30 101 -34 35 -86 52 -161 52 -83 0 -138 -16 -261 -75 -183 -88 -434
-278 -651 -491 l-94 -93 -98 96 c-275 273 -617 507 -804 552 -57 13 -161 13
-205 -1z m221 -262 c133 -40 416 -257 702 -538 l131 -128 52 0 53 0 146 143
c323 314 636 537 754 537 14 0 18 -8 18 -32 0 -156 61 -727 100 -947 16 -88
24 -109 48 -133 48 -49 83 -47 213 11 265 117 570 191 796 191 l62 0 -61 -102
c-79 -133 -209 -402 -286 -594 -76 -189 -162 -438 -162 -472 0 -35 35 -88 68
-100 67 -27 474 -83 752 -103 91 -6 167 -13 169 -15 2 -2 -22 -39 -53 -82 -56
-77 -212 -240 -291 -303 -66 -52 -213 -147 -296 -190 -61 -32 -81 -48 -94 -76
-26 -55 -14 -94 52 -176 76 -94 288 -306 386 -386 42 -35 77 -67 77 -71 0 -21
-296 -126 -535 -192 -177 -48 -199 -58 -221 -101 -16 -29 -16 -47 -5 -192 12
-157 49 -432 71 -529 6 -27 9 -51 6 -53 -9 -9 -346 60 -346 71 0 1 16 49 35
106 46 137 81 305 95 460 8 86 10 340 7 810 -4 645 -5 691 -25 795 -57 298
-151 534 -301 756 -244 363 -583 597 -978 676 -121 24 -385 24 -506 0 -327
-65 -635 -249 -853 -510 -228 -271 -361 -563 -430 -947 -26 -139 -33 -1424
-10 -1625 17 -149 50 -297 94 -427 l30 -88 -36 -9 c-95 -24 -392 -74 -399 -67
-2 2 19 70 46 152 51 154 101 358 122 502 11 72 11 87 -4 117 -9 19 -29 41
-44 48 -15 8 -161 51 -323 96 -161 45 -295 83 -297 85 -2 1 52 45 119 97 158
122 394 332 419 372 26 44 24 84 -11 143 -58 102 -141 160 -398 280 -113 53
-346 179 -405 220 -17 11 -9 18 80 70 195 115 396 191 663 249 147 33 174 45
196 87 33 63 17 96 -100 219 -164 171 -317 420 -386 629 -43 127 -82 330 -65
330 3 0 240 -45 527 -101 292 -56 531 -98 544 -95 13 4 38 19 54 34 27 24 33
40 50 133 40 222 100 792 100 947 0 37 11 40 84 18z m1031 -1186 c509 -73 928
-466 1100 -1034 67 -221 67 -223 72 -976 5 -695 1 -811 -33 -980 -123 -611
-547 -1075 -1079 -1181 -88 -18 -329 -18 -410 0 -552 117 -965 580 -1087 1219
-23 115 -23 130 -23 862 0 732 0 747 23 862 126 660 576 1145 1137 1227 84 12
217 12 300 1z"/>
<path d="M1984 3470 c-57 -23 -82 -107 -49 -169 18 -36 58 -55 189 -87 l107
-27 -48 -27 c-102 -59 -192 -171 -234 -291 -33 -93 -33 -237 0 -338 98 -300
442 -451 732 -322 149 66 281 231 305 380 4 22 10 41 13 41 4 0 12 -24 18 -52
57 -270 345 -461 615 -409 307 60 502 354 433 650 -32 135 -134 276 -247 340
l-50 29 33 7 c19 3 76 18 127 32 76 21 98 32 122 60 49 56 35 145 -30 178 -39
20 -50 19 -181 -15 -212 -56 -530 -90 -839 -90 -309 0 -627 34 -839 90 -119
31 -143 34 -177 20z m1162 -409 c-62 -66 -121 -176 -132 -247 -8 -56 -20 -56
-28 0 -11 71 -70 181 -132 247 l-57 59 203 0 203 0 -57 -59z m-552 -95 c105
-51 161 -144 161 -266 0 -85 -21 -142 -74 -203 -82 -92 -237 -121 -353 -64
-160 79 -215 278 -118 430 80 126 246 170 384 103z m1080 0 c105 -51 161 -144
161 -266 0 -85 -21 -142 -74 -203 -82 -92 -237 -121 -353 -64 -160 79 -215
278 -118 430 80 126 246 170 384 103z"/>
<path d="M2355 2751 c-45 -20 -70 -60 -70 -112 0 -42 5 -53 33 -81 28 -28 39
-33 82 -33 43 0 54 5 82 33 28 28 33 39 33 82 0 42 -5 54 -31 81 -33 33 -92
46 -129 30z"/>
<path d="M3555 2871 c-45 -20 -70 -60 -70 -112 0 -42 5 -53 33 -81 28 -28 39
-33 82 -33 43 0 54 5 82 33 28 28 33 39 33 82 0 42 -5 54 -31 81 -33 33 -92
46 -129 30z"/>
<path d="M3058 2142 c-51 -31 -58 -62 -58 -266 l0 -187 -32 17 c-18 9 -58 36
-89 60 -75 57 -100 68 -142 60 -48 -9 -97 -65 -97 -111 0 -54 19 -83 93 -141
215 -168 388 -175 474 -20 l28 51 3 227 c3 192 1 232 -12 260 -30 63 -110 87
-168 50z"/>
<path d="M2790 1314 c-127 -11 -318 -38 -425 -60 -267 -54 -320 -83 -320 -174
0 -40 5 -54 29 -79 38 -39 78 -46 151 -27 63 16 75 14 75 -12 0 -41 60 -120
121 -161 34 -22 68 -41 75 -41 8 0 14 -10 14 -25 0 -67 86 -176 175 -223 42
-22 63 -26 130 -27 95 0 168 29 230 91 38 40 85 125 85 157 0 10 8 17 18 17
10 0 39 13 63 29 69 46 112 113 138 217 l16 61 130 -22 c72 -12 177 -34 235
-49 120 -32 154 -29 196 15 24 25 29 39 29 79 0 92 -53 120 -322 175 -198 40
-355 56 -583 60 -118 1 -235 1 -260 -1z m327 -270 c-8 -51 -31 -71 -92 -84
-71 -15 -102 -48 -116 -125 -18 -96 -32 -115 -89 -115 -57 0 -71 19 -89 115
-13 71 -47 112 -100 120 -72 12 -79 15 -91 45 -7 17 -10 33 -8 36 18 18 259
41 452 43 l139 1 -6 -36z"/>
</g>
</svg>
